# xmcd CD database file
#
# Track frame offsets:
#	150
#	12680
#	29636
#	46547
#	58752
#	74095
#	77908
#	95371
#	121354
#	138725
#	155720
#	179542
#	200095
#
# Disc length: 2897 seconds
#
# Revision: 1
# Processed by: cddbd v1.5.2PL0 Copyright (c) Steve Scherf et al.
# Submitted via: CDex 1.70beta2
#
DISCID=c70b4f0d
DTITLE=Pickup the Harp - B
DYEAR=2001
DGENRE=Blues
TTITLE0=Capital B
TTITLE1=Taste of Freedom
TTITLE2=You Don´t Love Me
TTITLE3=Got to Tell You
TTITLE4=Don´t Drag Yourself
TTITLE5=Mulder and Scully
TTITLE6=I Can´t Hold Out
TTITLE7=Hey Little Girl
TTITLE8=Lord Don´t Move the Mountain
TTITLE9=I Can´t Be Satisfied
TTITLE10=Blues Queen
TTITLE11=Walking Blues
TTITLE12=The Child Inside
EXTD=YEAR: 2001
EXTT0=
EXTT1=
EXTT2=
EXTT3=
EXTT4=
EXTT5=
EXTT6=
EXTT7=
EXTT8=
EXTT9=
EXTT10=
EXTT11=
EXTT12=
PLAYORDER=
